<?xml version="1.0" encoding="UTF-8" standalone="no"?>
<!DOCTYPE svg PUBLIC "-//W3C//DTD SVG 1.1//EN"
 "http://www.w3.org/Graphics/SVG/1.1/DTD/svg11.dtd">
<!-- Generated by graphviz version 2.49.0 (20210828.1703)
 -->
<!-- Pages: 1 -->
<svg width="761pt" height="721pt"
 viewBox="0.00 0.00 760.75 721.24" xmlns="http://www.w3.org/2000/svg" xmlns:xlink="http://www.w3.org/1999/xlink">
<g id="graph0" class="graph" transform="scale(1 1) rotate(0) translate(144 577.24)">
<polygon fill="white" stroke="transparent" points="-144,144 -144,-577.24 616.75,-577.24 616.75,144 -144,144"/>
<!-- course -->
<g id="node1" class="node">
<title>course</title>
<polygon fill="none" stroke="black" points="158.55,-188.86 104.55,-188.86 104.55,-152.86 158.55,-152.86 158.55,-188.86"/>
<text text-anchor="middle" x="131.55" y="-166.66" font-family="Times,serif" font-size="14.00">course</text>
</g>
<!-- course_name -->
<g id="node2" class="node">
<title>course_name</title>
<ellipse fill="none" stroke="black" cx="62.61" cy="-88.33" rx="31.9" ry="18"/>
<text text-anchor="middle" x="62.61" y="-84.13" font-family="Times,serif" font-size="14.00">name</text>
</g>
<!-- course&#45;&#45;course_name -->
<g id="edge1" class="edge">
<title>course&#45;&#45;course_name</title>
<path fill="none" stroke="black" d="M116.25,-152.54C104.27,-138.2 87.76,-118.44 76.23,-104.64"/>
</g>
<!-- course_code -->
<g id="node3" class="node">
<title>course_code</title>
<ellipse fill="none" stroke="black" cx="29.27" cy="-196.94" rx="29.04" ry="18"/>
<text text-anchor="start" x="16.05" y="-193.74" font-family="Times,serif" text-decoration="underline" font-size="14.00">code</text>
</g>
<!-- course&#45;&#45;course_code -->
<g id="edge2" class="edge">
<title>course&#45;&#45;course_code</title>
<path fill="none" stroke="black" d="M104.41,-177.78C89.61,-181.55 71.35,-186.21 56.54,-189.99"/>
</g>
<!-- institute -->
<g id="node4" class="node">
<title>institute</title>
<polygon fill="none" stroke="black" points="290.03,-336.56 228.8,-336.56 228.8,-300.56 290.03,-300.56 290.03,-336.56"/>
<text text-anchor="middle" x="259.42" y="-314.36" font-family="Times,serif" font-size="14.00">institute</text>
</g>
<!-- institute_id -->
<g id="node5" class="node">
<title>institute_id</title>
<ellipse fill="none" stroke="black" cx="329.22" cy="-400.19" rx="27" ry="18"/>
<text text-anchor="start" x="323.77" y="-396.99" font-family="Times,serif" text-decoration="underline" font-size="14.00">id</text>
</g>
<!-- institute&#45;&#45;institute_id -->
<g id="edge3" class="edge">
<title>institute&#45;&#45;institute_id</title>
<path fill="none" stroke="black" d="M274.91,-336.68C287.12,-350.96 303.98,-370.67 315.66,-384.33"/>
</g>
<!-- institute_name -->
<g id="node6" class="node">
<title>institute_name</title>
<ellipse fill="none" stroke="black" cx="216.59" cy="-415.24" rx="31.9" ry="18"/>
<text text-anchor="middle" x="216.59" y="-411.04" font-family="Times,serif" font-size="14.00">name</text>
</g>
<!-- institute&#45;&#45;institute_name -->
<g id="edge4" class="edge">
<title>institute&#45;&#45;institute_name</title>
<path fill="none" stroke="black" d="M251.36,-336.75C243.66,-354.14 232.11,-380.21 224.46,-397.46"/>
</g>
<!-- student -->
<g id="node7" class="node">
<title>student</title>
<polygon fill="none" stroke="black" points="366.46,-140.06 309.58,-140.06 309.58,-104.06 366.46,-104.06 366.46,-140.06"/>
<text text-anchor="middle" x="338.02" y="-117.86" font-family="Times,serif" font-size="14.00">student</text>
</g>
<!-- student_id -->
<g id="node8" class="node">
<title>student_id</title>
<ellipse fill="none" stroke="black" cx="437.14" cy="-169.84" rx="27" ry="18"/>
<text text-anchor="start" x="431.7" y="-166.64" font-family="Times,serif" text-decoration="underline" font-size="14.00">id</text>
</g>
<!-- student&#45;&#45;student_id -->
<g id="edge5" class="edge">
<title>student&#45;&#45;student_id</title>
<path fill="none" stroke="black" d="M366.42,-135.76C381.87,-143.2 400.69,-152.27 415.03,-159.18"/>
</g>
<!-- student_name -->
<g id="node9" class="node">
<title>student_name</title>
<ellipse fill="none" stroke="black" cx="302.2" cy="-18" rx="31.9" ry="18"/>
<text text-anchor="middle" x="302.2" y="-13.8" font-family="Times,serif" font-size="14.00">name</text>
</g>
<!-- student&#45;&#45;student_name -->
<g id="edge6" class="edge">
<title>student&#45;&#45;student_name</title>
<path fill="none" stroke="black" d="M331.78,-103.94C325.21,-84.84 314.92,-54.94 308.37,-35.92"/>
</g>
<!-- student_number -->
<g id="node10" class="node">
<title>student_number</title>
<ellipse fill="none" stroke="black" cx="382.69" cy="-23.68" rx="40.57" ry="18"/>
<text text-anchor="middle" x="382.69" y="-19.48" font-family="Times,serif" font-size="14.00">number</text>
</g>
<!-- student&#45;&#45;student_number -->
<g id="edge7" class="edge">
<title>student&#45;&#45;student_number</title>
<path fill="none" stroke="black" d="M346.21,-104.02C354.27,-86.27 366.51,-59.32 374.55,-41.61"/>
</g>
<!-- student_grade -->
<g id="node11" class="node">
<title>student_grade</title>
<ellipse fill="none" stroke="black" cx="440.27" cy="-88.19" rx="32.46" ry="18"/>
<text text-anchor="middle" x="440.27" y="-83.99" font-family="Times,serif" font-size="14.00">grade</text>
</g>
<!-- student&#45;&#45;student_grade -->
<g id="edge8" class="edge">
<title>student&#45;&#45;student_grade</title>
<path fill="none" stroke="black" d="M366.5,-112.63C380.8,-107.89 398.06,-102.17 412.29,-97.46"/>
</g>
<!-- CI -->
<g id="node12" class="node">
<title>CI</title>
<polygon fill="none" stroke="black" points="156.82,-296 123.2,-278 156.82,-260 190.44,-278 156.82,-296"/>
<text text-anchor="middle" x="156.82" y="-273.8" font-family="Times,serif" font-size="14.00">C&#45;I</text>
</g>
<!-- CI&#45;&#45;course -->
<g id="edge10" class="edge">
<title>CI&#45;&#45;course</title>
<path fill="none" stroke="black" d="M152.98,-261.73C148.37,-242.18 140.66,-209.46 135.85,-189.08"/>
<text text-anchor="start" x="137.42" y="-229.61" font-family="Times,serif" font-size="14.00" fill="blue">n</text>
</g>
<!-- CI&#45;&#45;institute -->
<g id="edge9" class="edge">
<title>CI&#45;&#45;institute</title>
<path fill="none" stroke="black" d="M177.7,-283.03C192.49,-288.88 212.99,-296.98 229.89,-303.67"/>
<path fill="none" stroke="transparent" d="M176.97,-284.89C191.76,-290.74 212.26,-298.84 229.16,-305.53"/>
<path fill="none" stroke="transparent" d="M176.23,-286.75C191.02,-292.6 211.52,-300.7 228.42,-307.39"/>
<path fill="none" stroke="black" d="M175.5,-288.61C190.29,-294.46 210.79,-302.56 227.69,-309.25"/>
<text text-anchor="start" x="195.7" y="-300.34" font-family="Times,serif" font-size="14.00" fill="blue">1</text>
</g>
<!-- SI -->
<g id="node13" class="node">
<title>SI</title>
<polygon fill="none" stroke="black" points="328.62,-251.55 296.53,-233.55 328.62,-215.55 360.7,-233.55 328.62,-251.55"/>
<text text-anchor="middle" x="328.62" y="-229.35" font-family="Times,serif" font-size="14.00">S&#45;I</text>
</g>
<!-- SI&#45;&#45;institute -->
<g id="edge11" class="edge">
<title>SI&#45;&#45;institute</title>
<path fill="none" stroke="black" d="M320.73,-247.99C309.08,-262.31 289.91,-285.85 276.6,-302.2"/>
<path fill="none" stroke="transparent" d="M319.18,-246.73C307.53,-261.04 288.36,-284.59 275.05,-300.94"/>
<path fill="none" stroke="transparent" d="M317.63,-245.46C305.98,-259.78 286.81,-283.33 273.5,-299.68"/>
<path fill="none" stroke="black" d="M316.08,-244.2C304.42,-258.52 285.26,-282.07 271.95,-298.42"/>
<text text-anchor="start" x="289.34" y="-277.4" font-family="Times,serif" font-size="14.00" fill="blue">1</text>
</g>
<!-- SI&#45;&#45;student -->
<g id="edge12" class="edge">
<title>SI&#45;&#45;student</title>
<path fill="none" stroke="black" d="M327.1,-215.88C328.84,-195.18 331.74,-160.82 333.51,-139.85"/>
<path fill="none" stroke="transparent" d="M329.09,-216.05C330.84,-195.35 333.73,-160.98 335.5,-140.02"/>
<path fill="none" stroke="transparent" d="M331.08,-216.22C332.83,-195.52 335.73,-161.15 337.5,-140.18"/>
<path fill="none" stroke="black" d="M333.08,-216.38C334.82,-195.68 337.72,-161.32 339.49,-140.35"/>
<text text-anchor="start" x="326.29" y="-182.32" font-family="Times,serif" font-size="14.00" fill="blue">n</text>
</g>
<!-- SC -->
<g id="node14" class="node">
<title>SC</title>
<polygon fill="none" stroke="black" points="226.56,-134.79 189.85,-116.79 226.56,-98.79 263.27,-116.79 226.56,-134.79"/>
<text text-anchor="middle" x="226.56" y="-112.59" font-family="Times,serif" font-size="14.00">S&#45;C</text>
</g>
<!-- SC&#45;&#45;course -->
<g id="edge13" class="edge">
<title>SC&#45;&#45;course</title>
<path fill="none" stroke="black" d="M209.13,-126.71C194.99,-134.75 174.81,-146.24 158.57,-155.48"/>
<text text-anchor="start" x="176.85" y="-145.29" font-family="Times,serif" font-size="14.00" fill="blue">n</text>
</g>
<!-- SC&#45;&#45;student -->
<g id="edge14" class="edge">
<title>SC&#45;&#45;student</title>
<path fill="none" stroke="black" d="M260.3,-118.39C276.07,-119.13 294.62,-120.01 309.65,-120.72"/>
<text text-anchor="start" x="274.09" y="-123.75" font-family="Times,serif" font-size="14.00" fill="blue">m</text>
</g>
</g>
</svg>
